<?xml version="1.0" encoding="UTF-8" standalone="no"?>
<svg
   xmlns:dc="http://purl.org/dc/elements/1.1/"
   xmlns:cc="http://creativecommons.org/ns#"
   xmlns:rdf="http://www.w3.org/1999/02/22-rdf-syntax-ns#"
   xmlns:svg="http://www.w3.org/2000/svg"
   xmlns="http://www.w3.org/2000/svg"
   xmlns:xlink="http://www.w3.org/1999/xlink"
   id="svg821"
   version="1.1"
   viewBox="0 0 135.46666 135.46667"
   height="512"
   width="512">
  <defs
     id="defs815">
    <linearGradient
       id="linearGradient1470">
      <stop
         id="stop1466"
         offset="0"
         style="stop-color:#3d3d3d;stop-opacity:1;" />
      <stop
         id="stop1468"
         offset="1"
         style="stop-color:#3d3d3d;stop-opacity:1" />
    </linearGradient>
    <linearGradient
       id="linearGradient1462">
      <stop
         id="stop1458"
         offset="0"
         style="stop-color:#000000;stop-opacity:1" />
      <stop
         id="stop1460"
         offset="1"
         style="stop-color:#000000;stop-opacity:0;" />
    </linearGradient>
    <linearGradient
       gradientTransform="translate(0.52916667)"
       gradientUnits="userSpaceOnUse"
       y2="98.758179"
       x2="64.273811"
       y1="287.45047"
       x1="66.311798"
       id="linearGradient1464"
       xlink:href="#linearGradient1462" />
    <linearGradient
       gradientTransform="translate(0.52916667)"
       y2="287.45047"
       x2="66.311798"
       y1="98.758179"
       x1="64.273811"
       gradientUnits="userSpaceOnUse"
       id="linearGradient1474"
       xlink:href="#linearGradient1470" />
  </defs>
  <metadata
     id="metadata818">
    <rdf:RDF>
      <cc:Work
         rdf:about="">
        <dc:format>image/svg+xml</dc:format>
        <dc:type
           rdf:resource="http://purl.org/dc/dcmitype/StillImage" />
        <dc:title></dc:title>
      </cc:Work>
    </rdf:RDF>
  </metadata>
  <g
     transform="translate(0,-161.53332)"
     id="layer1">
    <rect
       ry="18.610664"
       rx="18.610664"
       y="167.83121"
       x="6.4490724"
       height="123.77807"
       width="123.02212"
       id="rect1382"
       style="opacity:1;fill:url(#linearGradient1464);fill-opacity:1;fill-rule:evenodd;stroke:url(#linearGradient1474);stroke-width:9.64374256;stroke-linecap:round;stroke-linejoin:round;stroke-miterlimit:4;stroke-dasharray:none;stroke-dashoffset:0;stroke-opacity:1" />
    <flowRoot
       style="fill:black;fill-opacity:1;stroke:none;font-family:'Material Icons';font-style:normal;font-weight:normal;font-size:16px;line-height:1.25;letter-spacing:0px;word-spacing:0px;-inkscape-font-specification:'Material Icons';font-stretch:normal;font-variant:normal"
       id="flowRoot1366"
       xml:space="preserve"><flowRegion
         id="flowRegion1368"><rect
           y="120.57143"
           x="61.42857"
           height="114.28571"
           width="162.85715"
           id="rect1370" /></flowRegion><flowPara
         id="flowPara1372"></flowPara></flowRoot>    <flowRoot
       style="fill:black;fill-opacity:1;stroke:none;font-family:Ubuntu;font-style:normal;font-weight:normal;font-size:16px;line-height:1.25;letter-spacing:0px;word-spacing:0px;-inkscape-font-specification:Ubuntu;font-stretch:normal;font-variant:normal;"
       id="flowRoot1400"
       xml:space="preserve"><flowRegion
         style="-inkscape-font-specification:Ubuntu;font-family:Ubuntu;font-weight:normal;font-style:normal;font-stretch:normal;font-variant:normal;"
         id="flowRegion1402"><rect
           style="-inkscape-font-specification:Ubuntu;font-family:Ubuntu;font-weight:normal;font-style:normal;font-stretch:normal;font-variant:normal;"
           y="169.14285"
           x="-414.28571"
           height="328.57144"
           width="308.57144"
           id="rect1404" /></flowRegion><flowPara
         id="flowPara1406"></flowPara></flowRoot>    <flowRoot
       style="fill:black;fill-opacity:1;stroke:none;font-family:'Material Icons';font-style:normal;font-weight:normal;font-size:16px;line-height:1.25;letter-spacing:0px;word-spacing:0px;-inkscape-font-specification:'Material Icons';font-stretch:normal;font-variant:normal"
       id="flowRoot1412"
       xml:space="preserve"><flowRegion
         id="flowRegion1414"><rect
           y="292"
           x="-354.28571"
           height="60"
           width="91.428574"
           id="rect1416" /></flowRegion><flowPara
         id="flowPara1418"></flowPara></flowRoot>    <g
       id="text1452"
       style="font-style:normal;font-variant:normal;font-weight:normal;font-stretch:normal;font-size:75.85474396px;line-height:1.25;font-family:'Material Icons';-inkscape-font-specification:'Material Icons';letter-spacing:0px;word-spacing:0px;opacity:1;fill:#ffffff;fill-opacity:1;stroke:none;stroke-width:4.7409215"
       transform="scale(0.96590071,1.0353031)"
       aria-label="">
      <path
         id="path1586"
         style="fill:#e6e6e6;stroke-width:4.7409215"
         d="M 93.216944,230.1827 V 198.47779 H 55.289572 v 31.70491 z m 0,-37.92737 q 2.518614,0 4.444614,1.926 1.925999,1.77784 1.925999,4.29646 v 31.70491 q 0,2.51861 -1.925999,4.44461 -1.926,1.77785 -4.444614,1.77785 H 55.289572 q -2.518615,0 -4.444614,-1.77785 -1.925999,-1.926 -1.925999,-4.44461 v -31.70491 q 0,-2.51862 1.925999,-4.29646 1.925999,-1.926 4.444614,-1.926 h 28.741836 v -6.37062 q 0,-4.00015 -2.963076,-6.81507 -2.814922,-2.96308 -6.815074,-2.96308 -4.000153,0 -6.963229,2.96308 -2.814922,2.81492 -2.814922,6.81507 h -6.074306 q 0,-6.51876 4.592768,-11.11153 4.740922,-4.74092 11.259689,-4.74092 6.518767,0 11.111535,4.74092 4.740921,4.59277 4.740921,11.11153 v 6.37062 z m -14.519072,26.51953 q -1.926,1.926 -4.444614,1.926 -2.518615,0 -4.444614,-1.926 -1.926,-1.926 -1.926,-4.44462 0,-2.51861 1.926,-4.44461 1.925999,-1.926 4.444614,-1.926 2.518614,0 4.444614,1.926 1.925999,1.926 1.925999,4.44461 0,2.51862 -1.925999,4.44462 z" />
    </g>
    <rect
       ry="0"
       rx="0"
       y="208.80104"
       x="40.892242"
       height="43.564934"
       width="64.946503"
       id="rect1456"
       style="opacity:1;fill:#008000;fill-opacity:1;fill-rule:evenodd;stroke:none;stroke-width:8.66299248;stroke-linecap:round;stroke-linejoin:round;stroke-miterlimit:4;stroke-dasharray:none;stroke-dashoffset:0;stroke-opacity:1" />
    <g
       id="text1376"
       style="font-style:normal;font-variant:normal;font-weight:normal;font-stretch:normal;font-size:101.88234711px;line-height:1.25;font-family:'Material Icons';-inkscape-font-specification:'Material Icons';letter-spacing:0px;word-spacing:0px;opacity:1;fill:#e6e6e6;fill-opacity:1;stroke:none;stroke-width:6.36764669"
       transform="scale(1.036176,0.96508702)"
       aria-label="">
      <path
         id="path1583"
         style="fill:#e6e6e6;stroke-width:6.36764669"
         d="m 70.776771,245.12431 v -12.73529 h 4.178768 v 12.73529 z M 28.193133,221.8426 v 59.4977 h 59.497699 v 8.35754 H 28.193133 q -3.382812,0 -5.969668,-2.38787 -2.387868,-2.58686 -2.387868,-5.96967 v -59.4977 z m 21.291819,14.92418 v -4.37776 h 4.178768 v 4.37776 z m 48.752295,-4.37776 v -6.36765 H 85.501954 v 25.47059 H 91.8696 v -8.35754 h 6.367647 v -6.36764 H 91.8696 v -4.37776 z m -16.914062,12.73529 v -12.73529 q 0,-2.58686 -1.7909,-4.37776 -1.790901,-1.98989 -4.576746,-1.98989 H 64.409124 v 25.47059 h 10.546415 q 2.785845,0 4.576746,-1.7909 1.7909,-1.98989 1.7909,-4.57675 z m -21.291818,-8.35753 v -4.37776 q 0,-2.58686 -1.98989,-4.37776 -1.7909,-1.98989 -4.377757,-1.98989 H 43.117305 v 25.47059 h 6.367647 v -8.35754 h 4.178768 q 2.586857,0 4.377757,-1.7909 1.98989,-1.98989 1.98989,-4.57674 z m 36.21599,-31.83824 q 3.382813,0 5.770683,2.58686 2.58685,2.38787 2.58685,5.77068 v 50.94117 q 0,3.38281 -2.58685,5.96967 -2.38787,2.58686 -5.770683,2.58686 H 45.306184 q -3.382812,0 -5.969669,-2.58686 -2.586856,-2.58686 -2.586856,-5.96967 v -50.94117 q 0,-3.38281 2.586856,-5.77068 2.586857,-2.58686 5.969669,-2.58686 z" />
    </g>
  </g>
</svg>
